<svg id="图层_1" data-name="图层 1" xmlns="http://www.w3.org/2000/svg" viewBox="0 0 453.96 494.11"><defs><style>.cls-1{fill:#ffa11b;}.cls-2{fill:#f05011;}.cls-3{fill:none;stroke:#ffb315;stroke-miterlimit:10;stroke-width:10px;}.cls-4{fill:#ff6715;}</style></defs><path class="cls-1" d="M367,105.41l44-73.17c3.81-6.33-1.38-14-9.48-14H178a11,11,0,0,0-9.48,5L45.81,227.25a8.54,8.54,0,0,0-.08,8.78L149.21,415.55c3.88,6.74,14.68,7,18.91.39l60-93.25a8.57,8.57,0,0,0-.25-9.77l-59.62-83.49a8.56,8.56,0,0,1-.41-9.53L228.37,119A11,11,0,0,1,237.5,114l120.36-3.54A11,11,0,0,0,367,105.41Z" transform="translate(-37.53 -18.27)"/><path class="cls-2" d="M163.09,425.06l-43.53,73.4c-3.77,6.35,1.47,14,9.57,13.92l223.52-1.13a11,11,0,0,0,9.45-5.08L483.48,301.62a8.54,8.54,0,0,0,0-8.78l-104.63-179c-3.93-6.72-14.73-6.88-18.91-.29l-59.39,93.55a8.57,8.57,0,0,0,.32,9.77l60.15,83.19a8.56,8.56,0,0,1,.47,9.53l-59.9,101.16a10.94,10.94,0,0,1-9.1,5.09L172.19,420A11,11,0,0,0,163.09,425.06Z" transform="translate(-37.53 -18.27)"/><line class="cls-3" x1="119.84" y1="3" x2="4.27" y2="193"/><polygon class="cls-4" points="453.95 300.25 340.37 491.45 331.77 486.34 445.5 295.23 453.95 300.25"/></svg>